<svg width="1080" height="1080" viewBox="0 0 1080 1080" fill="none" xmlns="http://www.w3.org/2000/svg">
<path d="M849.1 489.8H224.9C215.1 489.8 207.2 481.9 207.2 472.1V415.7C207.2 405.9 215.1 398 224.9 398H849.1C858.9 398 866.8 405.9 866.8 415.7V472.1C866.8 481.9 858.9 489.8 849.1 489.8Z" fill="#0F766E"/>
<path d="M760.5 828.6H313.5C297.7 828.6 284.2 817.3 281.4 801.7L238.6 489.8H835.4L792.6 801.7C789.9 817.3 776.3 828.6 760.5 828.6Z" fill="#199389"/>
<path d="M387 762.7C371.8 762.7 359.4 750.4 359.4 735.1V577.3C359.4 562.1 371.7 549.7 387 549.7C402.2 549.7 414.6 562 414.6 577.3V735.1C414.6 750.3 402.3 762.7 387 762.7Z" fill="#0F766E"/>
<path d="M491.6 762.7C476.4 762.7 464 750.4 464 735.1V577.3C464 562.1 476.3 549.7 491.6 549.7C506.8 549.7 519.2 562 519.2 577.3V735.1C519.2 750.3 506.9 762.7 491.6 762.7Z" fill="#0F766E"/>
<path d="M596.2 762.7C581 762.7 568.6 750.4 568.6 735.1V577.3C568.6 562.1 580.9 549.7 596.2 549.7C611.4 549.7 623.8 562 623.8 577.3V735.1C623.8 750.3 611.4 762.7 596.2 762.7Z" fill="#0F766E"/>
<path d="M700.8 762.7C685.6 762.7 673.2 750.4 673.2 735.1V577.3C673.2 562.1 685.5 549.7 700.8 549.7C716 549.7 728.4 562 728.4 577.3V735.1C728.4 750.3 716 762.7 700.8 762.7Z" fill="#0F766E"/>
<path d="M560.9 471.1H514.2C507.9 471.1 502.8 466 502.8 459.7V232.7C502.8 226.4 507.9 221.3 514.2 221.3H560.9C567.2 221.3 572.3 226.4 572.3 232.7V459.7C572.3 466 567.2 471.1 560.9 471.1Z" fill="#333333"/>
<path d="M537.6 451.5C548.535 451.5 557.4 442.635 557.4 431.7C557.4 420.765 548.535 411.9 537.6 411.9C526.665 411.9 517.8 420.765 517.8 431.7C517.8 442.635 526.665 451.5 537.6 451.5Z" fill="#0F766E"/>
</svg>
